{"title":"Aviyal 2016 pDVDRip Tamil Movies xviD~Hindify.mp4","uid":13861467,"size":765190223,"categoryP":"video","categoryS":"movies","magnet":"?xt=urn:btih:ac5e4ba9ef96d368eb23b7329cda66bfd9a15941&amp;dn=Aviyal+2016+pDVDRip+Tamil+Movies+xviD%7EHindify.mp4&amp;tr=udp%3A%2F%2Ftracker.leechers-paradise.org%3A6969&amp;tr=udp%3A%2F%2Fzer0day.ch%3A1337&amp;tr=udp%3A%2F%2Fopen.demonii.com%3A1337&amp;tr=udp%3A%2F%2Ftracker.coppersurfer.tk%3A6969&amp;tr=udp%3A%2F%2Fexodus.desync.com%3A6969","seeders":2,"leechers":3,"uploader":null,"files":1,"time":1458038050,"description":"HINDIFY.CO PRESENTS:\r\n\r\nAviyal 2016 pDVDRip Tamil Movies xviD~Hindify.mp4\r\n\r\nSCREENS:\r\n \nhttp://ultraimg.com/images/vlcsnap-00009fa882.png \nhttp://ultraimg.com/images/vlcsnap-000088f2d3.png \nhttp://ultraimg.com/images/vlcsnap-00007c86f5.png\r\n\r\nINFO:\r\n\r\nFormat : MPEG-4\r\nFormat profile : Base Media\r\nCodec ID : isom (isom/iso2/avc1/mp41)\r\nFile size : 730 MiB\r\nDuration : 1h 51mn\r\nOverall bit rate : 912 Kbps\r\nWriting application : Lavf57.20.100\r\n\r\nVideo\r\nID : 1\r\nFormat : AVC\r\nFormat/Info : Advanced Video Codec\r\nFormat profile :   \r\nFormat settings, CABAC : Yes\r\nFormat settings, ReFrames : 4 frames\r\nCodec ID : avc1\r\nCodec ID/Info : Advanced Video Coding\r\nDuration : 1h 51mn\r\nBit rate : 777 Kbps\r\nWidth : 608 pixels\r\nHeight : 256 pixels\r\nDisplay aspect ratio : 2.40:1\r\nFrame rate mode : Constant\r\nFrame rate : 25.000 fps\r\nColor space : YUV\r\nChroma subsampling : 4:2:0\r\nBit depth : 8 bits\r\nScan type : Progressive\r\nBits/(Pixel*Frame) : 0.200\r\nStream size : 622 MiB (85%)\r\nTitle : www.TamilRockers.cc\r\nWriting library : x264 core 148 r2638 7599210\r\nEncoding settings : cabac=1 / ref=3 / deblock=1:0:0 / analyse=0x3:0x113 / me=hex / subme=7 / psy=1 / psy_rd=1.00:0.00 / mixed_ref=1 / me_range=16 / chroma_me=1 / trellis=1 / 8x8dct=1 / cqm=0 / deadzone=21,11 / fast_pskip=1 / chroma_qp_offset=-2 / threads=8 / lookahead_threads=1 / sliced_threads=0 / nr=0 / decimate=1 / interlaced=0 / bluray_compat=0 / constrained_intra=0 / bframes=3 / b_pyramid=2 / b_adapt=1 / b_bias=0 / direct=1 / weightb=1 / open_gop=0 / weightp=2 / keyint=250 / keyint_min=25 / scenecut=40 / intra_refresh=0 / rc_lookahead=40 / rc=2pass / mbtree=1 / bitrate=777 / ratetol=1.0 / qcomp=0.60 / qpmin=0 / qpmax=69 / qpstep=4 / cplxblur=20.0 / qblur=0.5 / ip_ratio=1.40 / aq=1:1.00\r\nLanguage : Tamil\r\n\r\nAudio\r\nID : 2\r\nFormat : AAC\r\nFormat/Info : Advanced Audio Codec\r\nFormat profile : LC\r\nCodec ID : 40\r\nDuration : 1h 51mn\r\nBit rate mode : Constant\r\nBit rate : 129 Kbps\r\nChannel(s) : 2 channels\r\nChannel positions : Front: L R\r\nSampling rate : 48.0 KHz\r\nFrame rate : 46.875 fps (1024 spf)\r\nCompression mode : Lossy\r\nStream size : 103 MiB (14%)\r\nLanguage : Tamil\r\nDefault : Yes\r\nAlternate group : 1","torrent":{"xt":"urn:btih:ac5e4ba9ef96d368eb23b7329cda66bfd9a15941","amp;dn":"Aviyal+2016+pDVDRip+Tamil+Movies+xviD%7EHindify.mp4","amp;tr":["udp%3A%2F%2Ftracker.leechers-paradise.org%3A6969","udp%3A%2F%2Fzer0day.ch%3A1337","udp%3A%2F%2Fopen.demonii.com%3A1337","udp%3A%2F%2Ftracker.coppersurfer.tk%3A6969","udp%3A%2F%2Fexodus.desync.com%3A6969"],"infoHash":"ac5e4ba9ef96d368eb23b7329cda66bfd9a15941","infoHashBuffer":{"type":"Buffer","data":[172,94,75,169,239,150,211,104,235,35,183,50,156,218,102,191,217,161,89,65]},"announce":[],"urlList":[]}}